<?xml version="1.0" encoding="utf-8"?><svg viewBox="0 0 1792 1792" xmlns="http://www.w3.org/2000/svg" xmlns:xlink="http://www.w3.org/1999/xlink"><style>:root>svg{display:none}:root>svg:target{display:block}</style><svg viewBox="0 0 1792 1792" id="favorites--res_svg--favorites" xmlns="http://www.w3.org/2000/svg">
    <path d="M896 1664q-26 0-44-18l-624-602q-10-8-27.5-26T145 952.5 77 855 23.5 734 0 596q0-220 127-344t351-124q62 0 126.5 21.5t120 58T820 276t76 68q36-36 76-68t95.5-68.5 120-58T1314 128q224 0 351 124t127 344q0 221-229 450l-623 600q-18 18-44 18z"/>
</svg><svg viewBox="0 0 24 24" id="history--res_svg--history" xmlns="http://www.w3.org/2000/svg">
    <path d="M12 1a11.052 11.052 0 00-7 2.521V3a1 1 0 00-2 0v3c0 .025.012.047.014.072a1.011 1.011 0 00.038.188 1.035 1.035 0 00.062.18.991.991 0 00.1.156.931.931 0 00.074.111c.018.018.042.025.061.041s.028.038.047.053a.962.962 0 00.108.051.952.952 0 00.186.087.968.968 0 00.184.037A1 1 0 004 7h3a1 1 0 000-2h-.641A8.991 8.991 0 113 12a1 1 0 00-2 0A11 11 0 1012 1z"/>
    <path d="M12 13a1 1 0 001-1V6a1 1 0 00-2 0v5H8a1 1 0 000 2z"/>
</svg><svg viewBox="0 0 29 29" id="main--res_svg--delete" xmlns="http://www.w3.org/2000/svg">
    <path d="M19.795 27H9.205a2.99 2.99 0 01-2.985-2.702L4.505 7.099A.998.998 0 015.5 6h18a1 1 0 01.995 1.099L22.78 24.297A2.991 2.991 0 0119.795 27zM6.604 8L8.21 24.099a.998.998 0 00.995.901h10.59a.998.998 0 00.995-.901L22.396 8H6.604z"/>
    <path d="M26 8H3a1 1 0 110-2h23a1 1 0 110 2zM14.5 23a1 1 0 01-1-1V11a1 1 0 112 0v11a1 1 0 01-1 1zm-3.501 0a1 1 0 01-.995-.91l-1-11a1 1 0 01.905-1.086 1.003 1.003 0 011.087.906l1 11a1 1 0 01-.997 1.09zm7.002 0a1 1 0 01-.997-1.09l1-11c.051-.55.531-.946 1.087-.906a1 1 0 01.905 1.086l-1 11a1 1 0 01-.995.91z"/>
    <path d="M19 8h-9a1 1 0 01-1-1V3a1 1 0 011-1h9a1 1 0 011 1v4a1 1 0 01-1 1zm-8-2h7V4h-7v2z"/>
</svg></svg>