<?xml version="1.0" encoding="utf-8"?><svg viewBox="0 0 1792 1792" xmlns="http://www.w3.org/2000/svg" xmlns:xlink="http://www.w3.org/1999/xlink"><style>:root>svg{display:none}:root>svg:target{display:block}</style><svg viewBox="0 0 1792 1792" id="favorites--res_svg--favorites" xmlns="http://www.w3.org/2000/svg">
    <path d="M896 1664q-26 0-44-18l-624-602q-10-8-27.5-26T145 952.5 77 855 23.5 734 0 596q0-220 127-344t351-124q62 0 126.5 21.5t120 58T820 276t76 68q36-36 76-68t95.5-68.5 120-58T1314 128q224 0 351 124t127 344q0 221-229 450l-623 600q-18 18-44 18z"/>
</svg><svg viewBox="0 0 24 24" id="history--res_svg--history" xmlns="http://www.w3.org/2000/svg">
    <path d="M12 1a11.052 11.052 0 00-7 2.521V3a1 1 0 00-2 0v3c0 .025.012.047.014.072a1.011 1.011 0 00.038.188 1.035 1.035 0 00.062.18.991.991 0 00.1.156.931.931 0 00.074.111c.018.018.042.025.061.041s.028.038.047.053a.962.962 0 00.108.051.952.952 0 00.186.087.968.968 0 00.184.037A1 1 0 004 7h3a1 1 0 000-2h-.641A8.991 8.991 0 113 12a1 1 0 00-2 0A11 11 0 1012 1z"/>
    <path d="M12 13a1 1 0 001-1V6a1 1 0 00-2 0v5H8a1 1 0 000 2z"/>
</svg><svg viewBox="0 0 24 24" id="main--res_svg--cancel" xmlns="http://www.w3.org/2000/svg">
    <path fill="none" d="M0 0h24v24H0V0z" opacity=".87"/>
    <path d="M12 2C6.47 2 2 6.47 2 12s4.47 10 10 10 10-4.47 10-10S17.53 2 12 2zm0 18c-4.41 0-8-3.59-8-8s3.59-8 8-8 8 3.59 8 8-3.59 8-8 8zm3.59-13L12 10.59 8.41 7 7 8.41 10.59 12 7 15.59 8.41 17 12 13.41 15.59 17 17 15.59 13.41 12 17 8.41z"/>
</svg><svg viewBox="0 0 29 29" id="main--res_svg--delete" xmlns="http://www.w3.org/2000/svg">
    <path d="M19.795 27H9.205a2.99 2.99 0 01-2.985-2.702L4.505 7.099A.998.998 0 015.5 6h18a1 1 0 01.995 1.099L22.78 24.297A2.991 2.991 0 0119.795 27zM6.604 8L8.21 24.099a.998.998 0 00.995.901h10.59a.998.998 0 00.995-.901L22.396 8H6.604z"/>
    <path d="M26 8H3a1 1 0 110-2h23a1 1 0 110 2zM14.5 23a1 1 0 01-1-1V11a1 1 0 112 0v11a1 1 0 01-1 1zm-3.501 0a1 1 0 01-.995-.91l-1-11a1 1 0 01.905-1.086 1.003 1.003 0 011.087.906l1 11a1 1 0 01-.997 1.09zm7.002 0a1 1 0 01-.997-1.09l1-11c.051-.55.531-.946 1.087-.906a1 1 0 01.905 1.086l-1 11a1 1 0 01-.995.91z"/>
    <path d="M19 8h-9a1 1 0 01-1-1V3a1 1 0 011-1h9a1 1 0 011 1v4a1 1 0 01-1 1zm-8-2h7V4h-7v2z"/>
</svg><svg viewBox="0 0 32 32" id="main--res_svg--error" xmlns="http://www.w3.org/2000/svg">
    <path d="M23.214.586A2 2 0 0021.798 0H10.202c-.53 0-1.04.21-1.414.586l-8.2 8.202A1.985 1.985 0 000 10.202V21.8c0 .53.21 1.04.586 1.414l8.2 8.202c.376.374.884.584 1.416.584H21.8c.53 0 1.04-.21 1.414-.586l8.2-8.202c.376-.374.586-.882.586-1.414V10.202c0-.53-.21-1.04-.586-1.414l-8.2-8.202zM30 21.798L21.798 30H10.202L2 21.798V10.202L10.202 2H21.8l8.2 8.202v11.596zM16 6a2 2 0 00-2 2v10a2 2 0 004 0V8a2 2 0 00-2-2zm-2 18a2 2 1080 104 0 2 2 1080 10-4 0z"/>
</svg><svg viewBox="0 0 16 16" id="main--res_svg--expectation" xmlns="http://www.w3.org/2000/svg">
    <g>
        <path d="M8 2a6 6 0 106 6 6 6 0 00-6-6zm0 11a5 5 0 115-5 5 5 0 01-5 5z"/>
        <path d="M8 6.85a.5.5 0 00-.5.5v3.4a.5.5 0 001 0v-3.4a.5.5 0 00-.5-.5zM8 4.8a.53.53 0 00-.51.52v.08a.47.47 0 00.51.47.52.52 0 00.5-.5v-.12A.45.45 0 008 4.8z"/>
    </g>
</svg><svg viewBox="0 0 32 32" id="main--res_svg--success" xmlns="http://www.w3.org/2000/svg">
    <path d="M16.084 0c-8.836 0-16 7.164-16 16s7.164 16 16 16 16-7.164 16-16-7.164-16-16-16zm7.412 11.574l-7.664 11.714c-.002.002-.006.004-.006.006-.04.06-.062.128-.112.184-.07.076-.16.116-.24.174-.02.014-.04.03-.062.044-.124.078-.252.13-.392.164-.046.012-.088.024-.136.032a1.35 1.35 0 01-.336.004 1.324 1.324 0 01-.234-.036 1.415 1.415 0 01-.23-.092c-.064-.03-.132-.038-.192-.076-.044-.028-.068-.072-.106-.106-.016-.014-.036-.018-.052-.032l-4.462-4.126a1.4 1.4 0 011.9-2.056l3.23 2.988 6.75-10.318a1.4 1.4 0 112.344 1.532z"/>
</svg></svg>